<svg width="96" height="96" viewBox="0 0 96 96" fill="none" xmlns="http://www.w3.org/2000/svg">
<path d="M87.0161 26.755C85.7438 23.8676 83.9093 21.2511 81.6152 19.0519C79.3195 16.8462 76.6127 15.0933 73.6421 13.8886C70.5618 12.6345 67.258 11.9925 63.9225 12.0001C59.243 12.0001 54.6774 13.256 50.7099 15.6283C49.7607 16.1958 48.859 16.8191 48.0047 17.4983C47.1504 16.8191 46.2487 16.1958 45.2995 15.6283C41.3319 13.256 36.7664 12.0001 32.0869 12.0001C28.7173 12.0001 25.4521 12.6327 22.3673 13.8886C19.3868 15.098 16.7006 16.8377 14.3941 19.0519C12.0971 21.2486 10.2621 23.8657 8.99328 26.755C7.67392 29.7599 7 32.9509 7 36.2349C7 39.3329 7.64544 42.5611 8.92684 45.8452C9.99942 48.5896 11.5371 51.4364 13.5019 54.3111C16.6152 58.8604 20.896 63.605 26.2115 68.4148C35.0199 76.3876 43.7429 81.8951 44.113 82.1184L46.3626 83.5325C47.3592 84.1558 48.6406 84.1558 49.6373 83.5325L51.8869 82.1184C52.257 81.8858 60.9705 76.3876 69.7884 68.4148C75.1039 63.605 79.3847 58.8604 82.498 54.3111C84.4628 51.4364 86.01 48.5896 87.0731 45.8452C88.3544 42.5611 88.9999 39.3329 88.9999 36.2349C89.0094 32.9509 88.3355 29.7599 87.0161 26.755Z" fill="black"/>
<path d="M55.3182 25.8182C55.3182 25.8182 53.9656 25.9595 53.3636 27.7273L51.4091 35.3637L59.2273 41.091H65.0909C69 41.091 69 37.2728 69 37.2728L63.1364 31.5455C61.1818 29.6364 59.2273 29.6364 57.2727 29.6364V27.7273C57.2727 27.7273 57.2727 25.8182 55.3182 25.8182ZM35.7727 29.6364C35.7727 29.6364 34.3928 29.6097 32.9465 30.3161C31.5001 31.0224 29.9091 32.817 29.9091 35.3637V43.0001C29.9091 46.8182 29.9091 48.7273 27.9545 48.7273C27.9545 48.7273 26 48.7273 26 50.6364V58.2728C26 58.2728 26 60.1819 27.9545 60.1819C29.9091 60.1819 29.9091 58.2728 29.9091 58.2728V52.5455C31.2929 52.5455 32.6064 52.0224 33.8182 51.4039V58.2728C33.8182 58.2728 33.8182 60.1819 35.7727 60.1819C37.7273 60.1819 37.7273 58.2728 37.7273 58.2728V48.7273H49.4545L52.0502 56.3331C53.3636 60.1819 55.3182 60.1819 55.3182 60.1819H57.2727C57.2727 60.1819 59.2273 60.1819 59.2273 58.2728C59.2273 56.3637 57.2727 56.3637 57.2727 56.3637V46.8182C57.2727 43.4201 54.8022 42.0264 53.3636 41.091L47.4922 37.2728H33.8182V35.3637C33.8182 34.0922 34.1778 33.9815 34.6899 33.7295C35.1981 33.4813 35.7727 33.4546 35.7727 33.4546C38.4153 33.4928 38.4153 29.5982 35.7727 29.6364Z" fill="white"/>
</svg>
