<svg width="88" height="88" viewBox="0 0 88 88" fill="none" xmlns="http://www.w3.org/2000/svg">
<path d="M47.6667 29.3333C50.584 29.3333 53.3819 30.4923 55.4448 32.5552C57.5077 34.6181 58.6667 37.416 58.6667 40.3333C58.6667 41.3058 59.053 42.2384 59.7406 42.9261C60.4282 43.6137 61.3609 44 62.3333 44C63.3058 44 64.2384 43.6137 64.9261 42.9261C65.6137 42.2384 66 41.3058 66 40.3333C66 35.471 64.0685 30.8079 60.6303 27.3697C57.1921 23.9315 52.529 22 47.6667 22C46.6942 22 45.7616 22.3863 45.0739 23.0739C44.3863 23.7616 44 24.6942 44 25.6667C44 26.6391 44.3863 27.5718 45.0739 28.2594C45.7616 28.947 46.6942 29.3333 47.6667 29.3333Z" fill="black"/>
<path d="M47.6666 14.6667C54.4738 14.6667 61.0022 17.3709 65.8157 22.1843C70.6291 26.9977 73.3333 33.5262 73.3333 40.3334C73.3333 41.3058 73.7196 42.2385 74.4072 42.9261C75.0948 43.6137 76.0275 44 76.9999 44C77.9724 44 78.905 43.6137 79.5926 42.9261C80.2803 42.2385 80.6666 41.3058 80.6666 40.3334C80.6666 31.5812 77.1898 23.1876 71.0011 16.9988C64.8124 10.8101 56.4187 7.33337 47.6666 7.33337C46.6941 7.33337 45.7615 7.71968 45.0739 8.40732C44.3862 9.09495 43.9999 10.0276 43.9999 11C43.9999 11.9725 44.3862 12.9051 45.0739 13.5928C45.7615 14.2804 46.6941 14.6667 47.6666 14.6667ZM79.7499 58.3367C79.5482 57.7481 79.2001 57.2205 78.7382 56.8035C78.2764 56.3866 77.716 56.094 77.1099 55.9534L55.1099 50.93C54.5128 50.7946 53.8912 50.8109 53.3019 50.9775C52.7127 51.144 52.1745 51.4554 51.7366 51.8834C51.2232 52.36 51.1866 52.3967 48.8033 56.9434C40.895 53.2993 34.5582 46.9365 30.9466 39.0134C35.6032 36.6667 35.6399 36.6667 36.1166 36.1167C36.5445 35.6787 36.856 35.1406 37.0225 34.5513C37.189 33.9621 37.2053 33.3405 37.0699 32.7434L32.0466 11C31.906 10.3939 31.6134 9.83357 31.1964 9.37172C30.7795 8.90987 30.2519 8.56172 29.6633 8.36004C28.807 8.0542 27.9227 7.83314 27.0233 7.70004C26.0965 7.48516 25.1508 7.36234 24.1999 7.33337C19.7266 7.33337 15.4365 9.11039 12.2734 12.2735C9.11027 15.4366 7.33325 19.7267 7.33325 24.2C7.35266 39.17 13.308 53.5212 23.8934 64.1066C34.4787 74.6919 48.83 80.6473 63.7999 80.6667C66.0149 80.6667 68.2081 80.2304 70.2545 79.3828C72.3009 78.5352 74.1602 77.2928 75.7264 75.7266C77.2927 74.1604 78.535 72.301 79.3827 70.2546C80.2303 68.2083 80.6666 66.015 80.6666 63.8C80.6677 62.8668 80.5941 61.9349 80.4466 61.0134C80.2925 60.1026 80.0594 59.207 79.7499 58.3367Z" fill="black"/>
</svg>
