<svg width="82" height="73" viewBox="0 0 82 73" fill="none" xmlns="http://www.w3.org/2000/svg">
<path d="M81.2441 33.6869L72.8889 26.2971V6.84375C72.8889 6.23872 72.6489 5.65848 72.2217 5.23066C71.7946 4.80285 71.2152 4.5625 70.6111 4.5625H61.5C60.8959 4.5625 60.3165 4.80285 59.8894 5.23066C59.4622 5.65848 59.2222 6.23872 59.2222 6.84375V14.2108L44.8124 1.46855C43.9184 0.657285 42.2143 0 41 0C39.7857 0 38.0873 0.657285 37.1933 1.46855L0.748819 33.6912C0.299787 34.1456 0.0332671 34.7495 0 35.3879C0.0290942 35.9455 0.232819 36.4798 0.582257 36.9149L3.63021 40.3068C4.10524 40.7338 4.7035 40.9984 5.33854 41.0625C5.88911 41.0074 6.41475 40.805 6.86038 40.4765L9.12392 38.4804V68.4375C9.12392 69.6476 9.60388 70.808 10.4582 71.6637C11.3125 72.5193 12.4713 73 13.6795 73H68.3333C69.5415 73 70.7003 72.5193 71.5546 71.6637C72.4089 70.808 72.8889 69.6476 72.8889 68.4375V38.479L75.1538 40.4751C75.6014 40.8031 76.1282 41.0059 76.68 41.0625C77.3093 40.9966 77.9013 40.7314 78.3698 40.3054L81.4177 36.9106C81.7449 36.4641 81.946 35.9376 82 35.3865C81.9346 34.7539 81.6698 34.1587 81.2441 33.6869ZM41 25.0938C42.802 25.0938 44.5635 25.6289 46.0619 26.6316C47.5602 27.6343 48.728 29.0594 49.4176 30.7268C50.1072 32.3941 50.2876 34.2289 49.936 35.9989C49.5845 37.769 48.7167 39.3949 47.4425 40.6711C46.1683 41.9473 44.5449 42.8163 42.7775 43.1684C41.0101 43.5205 39.1782 43.3398 37.5133 42.6492C35.8485 41.9585 34.4255 40.7889 33.4244 39.2883C32.4232 37.7877 31.8889 36.0235 31.8889 34.2188C31.8889 31.7986 32.8488 29.4777 34.5575 27.7664C36.2661 26.0551 38.5836 25.0938 41 25.0938ZM56.9444 63.875H25.0556C24.4515 63.875 23.8721 63.6347 23.4449 63.2068C23.0178 62.779 22.7778 62.1988 22.7778 61.5938C22.7778 57.9636 24.2177 54.4821 26.7807 51.9152C29.3436 49.3483 32.8198 47.9062 36.4444 47.9062H45.5556C49.1802 47.9062 52.6563 49.3483 55.2193 51.9152C57.7823 54.4821 59.2222 57.9636 59.2222 61.5938C59.2222 62.1988 58.9822 62.779 58.5551 63.2068C58.1279 63.6347 57.5485 63.875 56.9444 63.875Z" fill="black"/>
<rect x="18.2222" y="24.3334" width="43.5309" height="42.5833" fill="black"/>
</svg>
