<svg width="95" height="95" viewBox="0 0 95 95" fill="none" xmlns="http://www.w3.org/2000/svg">
<path fill-rule="evenodd" clip-rule="evenodd" d="M79.1667 11.875H15.8334C11.4792 11.875 7.91675 15.4375 7.91675 19.7917V75.2083C7.91675 79.5625 11.4792 83.125 15.8334 83.125H79.1667C83.5209 83.125 87.0834 79.5625 87.0834 75.2083V19.7917C87.0834 15.4375 83.5209 11.875 79.1667 11.875ZM35.6251 67.2917H23.7501C21.573 67.2917 19.7917 65.5104 19.7917 63.3333C19.7917 61.1562 21.573 59.375 23.7501 59.375H35.6251C37.8022 59.375 39.5834 61.1562 39.5834 63.3333C39.5834 65.5104 37.8022 67.2917 35.6251 67.2917ZM35.6251 51.4583H23.7501C21.573 51.4583 19.7917 49.6771 19.7917 47.5C19.7917 45.3229 21.573 43.5417 23.7501 43.5417H35.6251C37.8022 43.5417 39.5834 45.3229 39.5834 47.5C39.5834 49.6771 37.8022 51.4583 35.6251 51.4583ZM35.6251 35.625H23.7501C21.573 35.625 19.7917 33.8438 19.7917 31.6667C19.7917 29.4896 21.573 27.7083 23.7501 27.7083H35.6251C37.8022 27.7083 39.5834 29.4896 39.5834 31.6667C39.5834 33.8438 37.8022 35.625 35.6251 35.625ZM74.0209 44.0167L61.473 56.5646C59.9292 58.1083 57.3959 58.1083 55.8522 56.5646L50.2709 50.9437C49.9044 50.5773 49.6137 50.1422 49.4154 49.6634C49.2171 49.1846 49.115 48.6714 49.115 48.1531C49.115 47.6349 49.2171 47.1217 49.4154 46.6428C49.6137 46.164 49.9044 45.729 50.2709 45.3625C50.6374 44.996 51.0724 44.7053 51.5513 44.507C52.0301 44.3087 52.5433 44.2066 53.0615 44.2066C53.5798 44.2066 54.093 44.3087 54.5718 44.507C55.0506 44.7053 55.4857 44.996 55.8522 45.3625L58.6626 48.1729L68.4397 38.3958C68.8059 38.0289 69.2408 37.7378 69.7197 37.5391C70.1985 37.3405 70.7119 37.2382 71.2303 37.2382C71.7487 37.2382 72.262 37.3405 72.7409 37.5391C73.2197 37.7378 73.6547 38.0289 74.0209 38.3958L74.0605 38.4354C75.5647 39.9792 75.5647 42.5125 74.0209 44.0167Z" fill="black"/>
</svg>
