<svg width="82" height="82" viewBox="0 0 82 82" fill="none" xmlns="http://www.w3.org/2000/svg">
<path fill-rule="evenodd" clip-rule="evenodd" d="M30.4374 5.125C13.6633 5.125 0.0461426 15.3084 0.0461426 27.8698C0.0461426 39.3293 11.398 48.79 26.1426 50.3531L19.885 62.8325L41.6611 48.995C52.8798 45.6433 61.5 37.4586 61.5 27.8698C61.5 15.3135 47.2166 5.125 30.4374 5.125Z" fill="black"/>
<path fill-rule="evenodd" clip-rule="evenodd" d="M81.7282 50.6862C81.7282 44.9257 76.2855 38.9602 69.9971 35.9877C68.2341 45.9814 60.1366 55.1808 47.36 58.7785L41.2766 62.0688C43.6034 63.8113 46.4529 65.2002 49.6509 66.1073L68.2956 76.2087L61.6177 67.1067C72.9799 65.9535 81.7282 59.0553 81.7282 50.6862Z" fill="black"/>
</svg>
