<svg width="284" height="272" viewBox="0 0 284 272" fill="none" xmlns="http://www.w3.org/2000/svg">
<path fill-rule="evenodd" clip-rule="evenodd" d="M142.592 0.479477C174.108 -1.5281 207.003 2.32346 232.813 20.565C258.82 38.9451 277.11 68.0283 282.624 99.4463C287.76 128.712 278.04 159.153 261.458 183.782C247.385 204.684 220.14 209.196 199.263 223.262C179.508 236.573 165.507 257.418 142.592 263.87C114.391 271.811 82.5447 277.488 56.8668 263.355C30.1533 248.653 15.9573 218.434 6.98421 189.237C-1.8839 160.381 -2.7433 129.464 6.93101 100.87C16.5199 72.528 36.3161 49.3252 60.3335 31.5521C84.4998 13.669 112.616 2.38898 142.592 0.479477Z"/>
</svg>
