<svg width="539" height="573" viewBox="0 0 539 573" fill="none" xmlns="http://www.w3.org/2000/svg">
<path fill-rule="evenodd" clip-rule="evenodd" d="M306.294 0.0854041C361.466 -2.71722 391.676 64.1254 431.589 102.354C465.158 134.506 502.881 162.276 520.544 205.29C539.211 250.747 544.553 300.909 532.713 348.606C520.261 398.77 489.784 440.824 453.056 477.159C410.522 519.238 365.814 578.415 306.294 572.602C246.3 566.743 220.608 494.011 178.963 450.39C146.429 416.312 114.745 385.256 89.4672 345.487C54.9522 291.184 -20.4439 236.063 5.22979 177.056C31.824 115.932 132.477 148.391 189.911 114.631C238.003 86.3613 250.594 2.91487 306.294 0.0854041Z"/>
</svg>
