<svg width="1174" height="725" viewBox="0 0 1174 725" fill="none" xmlns="http://www.w3.org/2000/svg">
<path fill-rule="evenodd" clip-rule="evenodd" d="M796.413 -512.702C965.24 -526.675 1166.63 -518.299 1278.71 -422.014C1389.81 -326.578 1280.36 -173.323 1332.16 -52.464C1383.85 68.1054 1615.78 146.863 1575.28 269.842C1535.49 390.668 1293.96 383.896 1163.39 460.017C1026.32 539.932 968.578 709.503 796.413 723.927C625.165 738.275 502.473 605.309 365.031 526.904C230.77 450.312 42.0276 396.766 5.56904 272.779C-30.6979 149.444 119.379 44.8062 189.539 -69.9011C249.307 -167.616 282.78 -273.258 385.31 -348.069C499.633 -431.483 638.331 -499.618 796.413 -512.702Z" fill="#FFF8E6"/>
</svg>
