<svg width="106" height="31" viewBox="0 0 106 31" fill="none" xmlns="http://www.w3.org/2000/svg">
<path d="M93 2.51953C86.1074 2.51953 80.52 8.10693 80.52 14.9995C80.52 21.8921 86.1074 27.4795 93 27.4795C99.8926 27.4795 105.48 21.8921 105.48 14.9995C105.48 8.10693 99.8926 2.51953 93 2.51953ZM95.9562 11.1437H94.0803C93.858 11.1437 93.611 11.4362 93.611 11.8249V13.1795H95.9575L95.6026 15.1113H93.611V20.9106H91.3971V15.1113H89.3886V13.1795H91.3971V12.0433C91.3971 10.4131 92.5281 9.08843 94.0803 9.08843H95.9562V11.1437V11.1437Z" fill="white"/>
<path d="M54.5 11.4652C52.278 11.4652 50.4646 13.2785 50.4646 15.5006C50.4646 17.7227 52.278 19.5361 54.5 19.5361C56.7221 19.5361 58.5355 17.7227 58.5355 15.5006C58.5355 13.2785 56.7221 11.4652 54.5 11.4652ZM66.6033 15.5006C66.6033 13.8295 66.6185 12.1736 66.5246 10.5055C66.4308 8.56799 65.9888 6.84846 64.572 5.43166C63.1522 4.01184 61.4357 3.57287 59.4982 3.47903C57.8271 3.38518 56.1711 3.40031 54.503 3.40031C52.832 3.40031 51.176 3.38518 49.5079 3.47903C47.5704 3.57287 45.8509 4.01487 44.4341 5.43166C43.0143 6.85149 42.5753 8.56799 42.4815 10.5055C42.3876 12.1766 42.4028 13.8325 42.4028 15.5006C42.4028 17.1687 42.3876 18.8277 42.4815 20.4957C42.5753 22.4332 43.0173 24.1528 44.4341 25.5696C45.8539 26.9894 47.5704 27.4283 49.5079 27.5222C51.179 27.616 52.835 27.6009 54.503 27.6009C56.1741 27.6009 57.8301 27.616 59.4982 27.5222C61.4357 27.4283 63.1552 26.9863 64.572 25.5696C65.9918 24.1497 66.4308 22.4332 66.5246 20.4957C66.6215 18.8277 66.6033 17.1717 66.6033 15.5006V15.5006ZM54.5 21.7097C51.064 21.7097 48.2909 18.9366 48.2909 15.5006C48.2909 12.0646 51.064 9.29153 54.5 9.29153C57.9361 9.29153 60.7091 12.0646 60.7091 15.5006C60.7091 18.9366 57.9361 21.7097 54.5 21.7097ZM60.9634 10.4873C60.1612 10.4873 59.5133 9.83947 59.5133 9.03723C59.5133 8.23498 60.1612 7.58713 60.9634 7.58713C61.7656 7.58713 62.4135 8.23498 62.4135 9.03723C62.4137 9.22773 62.3764 9.4164 62.3036 9.59244C62.2308 9.76848 62.124 9.92843 61.9893 10.0631C61.8546 10.1978 61.6947 10.3046 61.5186 10.3774C61.3426 10.4502 61.1539 10.4876 60.9634 10.4873V10.4873Z" fill="white"/>
<path d="M14.5 1.8125C7.49355 1.8125 1.8125 7.49355 1.8125 14.5C1.8125 21.5064 7.49355 27.1875 14.5 27.1875C21.5064 27.1875 27.1875 21.5064 27.1875 14.5C27.1875 7.49355 21.5064 1.8125 14.5 1.8125ZM20.5974 11.3763C20.6059 11.5094 20.6059 11.6481 20.6059 11.7841C20.6059 15.9415 17.4396 20.7305 11.6538 20.7305C9.86963 20.7305 8.21572 20.2122 6.82236 19.3201C7.07725 19.3484 7.3208 19.3598 7.58135 19.3598C9.054 19.3598 10.4077 18.8613 11.4867 18.0174C10.1047 17.9891 8.94355 17.0828 8.54707 15.8367C9.03135 15.9075 9.46748 15.9075 9.96592 15.7801C9.2543 15.6355 8.61469 15.249 8.15573 14.6863C7.69677 14.1236 7.44679 13.4193 7.44824 12.6932V12.6535C7.86455 12.8886 8.35449 13.033 8.86709 13.0528C8.43618 12.7656 8.08278 12.3766 7.83824 11.9201C7.59371 11.4636 7.46558 10.9539 7.46523 10.436C7.46523 9.8498 7.61816 9.31455 7.89287 8.8501C8.68273 9.82244 9.66836 10.6177 10.7857 11.1842C11.903 11.7506 13.1271 12.0757 14.3782 12.1381C13.9336 9.9999 15.5309 8.26953 17.451 8.26953C18.3572 8.26953 19.1729 8.64902 19.7478 9.26074C20.4586 9.12764 21.1383 8.86143 21.7443 8.50459C21.5093 9.23242 21.0165 9.84697 20.3623 10.235C20.9967 10.167 21.6084 9.99141 22.1748 9.74502C21.7472 10.3737 21.2119 10.9316 20.5974 11.3763V11.3763Z" fill="white"/>
</svg>
