<svg width="31" height="31" viewBox="0 0 31 31" fill="none" xmlns="http://www.w3.org/2000/svg">
<path d="M15.5 11.4652C13.278 11.4652 11.4646 13.2785 11.4646 15.5006C11.4646 17.7227 13.278 19.5361 15.5 19.5361C17.7221 19.5361 19.5355 17.7227 19.5355 15.5006C19.5355 13.2785 17.7221 11.4652 15.5 11.4652ZM27.6033 15.5006C27.6033 13.8295 27.6185 12.1736 27.5246 10.5055C27.4308 8.56799 26.9888 6.84846 25.572 5.43166C24.1522 4.01184 22.4357 3.57287 20.4982 3.47903C18.8271 3.38518 17.1711 3.40031 15.503 3.40031C13.832 3.40031 12.176 3.38518 10.5079 3.47903C8.57043 3.57287 6.8509 4.01487 5.4341 5.43166C4.01428 6.85149 3.57531 8.56799 3.48147 10.5055C3.38762 12.1766 3.40276 13.8325 3.40276 15.5006C3.40276 17.1687 3.38762 18.8277 3.48147 20.4957C3.57531 22.4332 4.01731 24.1528 5.4341 25.5696C6.85393 26.9894 8.57043 27.4283 10.5079 27.5222C12.179 27.616 13.835 27.6009 15.503 27.6009C17.1741 27.6009 18.8301 27.616 20.4982 27.5222C22.4357 27.4283 24.1552 26.9863 25.572 25.5696C26.9918 24.1497 27.4308 22.4332 27.5246 20.4957C27.6215 18.8277 27.6033 17.1717 27.6033 15.5006V15.5006ZM15.5 21.7097C12.064 21.7097 9.29094 18.9366 9.29094 15.5006C9.29094 12.0646 12.064 9.29153 15.5 9.29153C18.9361 9.29153 21.7091 12.0646 21.7091 15.5006C21.7091 18.9366 18.9361 21.7097 15.5 21.7097ZM21.9634 10.4873C21.1612 10.4873 20.5133 9.83947 20.5133 9.03723C20.5133 8.23498 21.1612 7.58713 21.9634 7.58713C22.7656 7.58713 23.4135 8.23498 23.4135 9.03723C23.4137 9.22773 23.3764 9.4164 23.3036 9.59244C23.2308 9.76848 23.124 9.92843 22.9893 10.0631C22.8546 10.1978 22.6947 10.3046 22.5186 10.3774C22.3426 10.4502 22.1539 10.4876 21.9634 10.4873V10.4873Z" fill="white"/>
</svg>
