<svg width="29" height="29" viewBox="0 0 29 29" fill="none" xmlns="http://www.w3.org/2000/svg">
<path d="M14.5 1.8125C7.49355 1.8125 1.8125 7.49355 1.8125 14.5C1.8125 21.5064 7.49355 27.1875 14.5 27.1875C21.5064 27.1875 27.1875 21.5064 27.1875 14.5C27.1875 7.49355 21.5064 1.8125 14.5 1.8125ZM20.5974 11.3763C20.6059 11.5094 20.6059 11.6481 20.6059 11.7841C20.6059 15.9415 17.4396 20.7305 11.6538 20.7305C9.86963 20.7305 8.21572 20.2122 6.82236 19.3201C7.07725 19.3484 7.3208 19.3598 7.58135 19.3598C9.054 19.3598 10.4077 18.8613 11.4867 18.0174C10.1047 17.9891 8.94355 17.0828 8.54707 15.8367C9.03135 15.9075 9.46748 15.9075 9.96592 15.7801C9.2543 15.6355 8.61469 15.249 8.15573 14.6863C7.69677 14.1236 7.44679 13.4193 7.44824 12.6932V12.6535C7.86455 12.8886 8.35449 13.033 8.86709 13.0528C8.43618 12.7656 8.08278 12.3766 7.83824 11.9201C7.59371 11.4636 7.46558 10.9539 7.46523 10.436C7.46523 9.8498 7.61816 9.31455 7.89287 8.8501C8.68273 9.82244 9.66836 10.6177 10.7857 11.1842C11.903 11.7506 13.1271 12.0757 14.3782 12.1381C13.9336 9.9999 15.5309 8.26953 17.451 8.26953C18.3572 8.26953 19.1729 8.64902 19.7478 9.26074C20.4586 9.12764 21.1383 8.86143 21.7443 8.50459C21.5093 9.23242 21.0165 9.84697 20.3623 10.235C20.9967 10.167 21.6084 9.99141 22.1748 9.74502C21.7472 10.3737 21.2119 10.9316 20.5974 11.3763V11.3763Z" fill="white"/>
</svg>
